<svg xmlns="http://www.w3.org/2000/svg" viewBox="0 0 67.67 66.2">
  <title>Black-logo-Gymnase</title>
  <g id="Layer_2" data-name="Layer 2">
    <g id="Layer_1-2" data-name="Layer 1">
      <g>
        <path d="M48,33.51h0a1,1,0,0,0-.95,1,7.11,7.11,0,0,1-1.63,4.45,4.29,4.29,0,0,1-3.21,1.2A4.12,4.12,0,0,1,39,38.93a6.92,6.92,0,0,1-1.49-4.44,1,1,0,0,0-.91-1,1,1,0,0,0-1,.91,8.77,8.77,0,0,0,2,5.82A6,6,0,0,0,42.17,42a6.17,6.17,0,0,0,4.56-1.76,9,9,0,0,0,2.18-5.79A1,1,0,0,0,48,33.51Z"/>
        <path d="M25.3,46.11a.64.64,0,0,0-.71-.54A4.72,4.72,0,0,1,21.43,45,1.39,1.39,0,0,1,21,43.87a1.2,1.2,0,0,1,.4-1c.8-.73,2.6-.72,3.23-.66a.63.63,0,0,0,.33-1.2A.17.17,0,0,0,24.7,41a8.51,8.51,0,0,0-1.23,0,.18.18,0,0,0-.12,0,7.29,7.29,0,0,0-1,.13c-.06-.15-.2-.23-.4,0a.3.3,0,0,0-.08.15,3.6,3.6,0,0,0-1.38.73,2.45,2.45,0,0,0-.81,1.61c-.07-.06-.18-.05-.32.08a.28.28,0,0,0,.3.46h0a2.61,2.61,0,0,0,.88,1.82,2.82,2.82,0,0,0,.27.2c-.07,0-.15,0-.25.12a.28.28,0,0,0,.3.45c.15-.07.16-.36.06-.5a3.9,3.9,0,0,0,1,.41.26.26,0,0,0,.33.09,7.29,7.29,0,0,0,1.55.16,7.42,7.42,0,0,0,.93-.05A.63.63,0,0,0,25.3,46.11Z"/>
        <path d="M30.81,50.14h-.16a47.09,47.09,0,0,1-6.42.58c-.65,0-1.3,0-1.94-.08.25-.13.09-.85-.31-.45a.29.29,0,0,0,0,.43l-1-.09c.09-.23-.08-.67-.41-.34a.3.3,0,0,0-.08.29l-.7-.09c0-.23-.16-.47-.43-.2a.31.31,0,0,0-.07.13l-.92-.14c-.06-.1-.16-.15-.31,0H18a3.79,3.79,0,0,0-.82.09c-.06-.14-.2-.22-.4,0a.31.31,0,0,0-.09.17,3.81,3.81,0,0,0-2.28,2.3.32.32,0,0,0-.22.12.28.28,0,0,0,.07.47,3.8,3.8,0,0,0-.06.68s0,0,0,.06h0a.29.29,0,0,0,0,.46,2.91,2.91,0,0,0,.26.82c-.07,0-.18,0-.3.09a.28.28,0,0,0,.3.46.3.3,0,0,0,.12-.33,3.56,3.56,0,0,0,.92,1,.47.47,0,0,0-.13.09.28.28,0,0,0,.3.46.31.31,0,0,0,.12-.34,9.9,9.9,0,0,0,3.55,1.24h0a.28.28,0,0,0,.3.46c.12-.06.15-.25.1-.4l.73.1a.27.27,0,0,0,.39.3.26.26,0,0,0,.13-.24l.86.07a.26.26,0,0,0,.39.17.21.21,0,0,0,.11-.14l.75,0a.26.26,0,0,0,.36.1.19.19,0,0,0,.09-.09h.93a.26.26,0,0,0,.35.08.19.19,0,0,0,.08-.08h.78a.26.26,0,0,0,.35.09.19.19,0,0,0,.09-.1c3.4-.09,8.43-.68,8.43-4.38A3.8,3.8,0,0,0,30.81,50.14Zm-6.34,6.3c-5.07,0-8.34-1-8.34-2.5a1.88,1.88,0,0,1,.18-.79,42.22,42.22,0,0,0,8.11,1.07h.09a39.32,39.32,0,0,0,8-1.07,1.88,1.88,0,0,1,.18.79C32.71,56.43,26.51,56.43,24.48,56.43Z"/>
        <path d="M57.54,38.75a1,1,0,1,0,.17,1.89,5,5,0,0,1,3.2.77,1.63,1.63,0,0,1,.51,1.29,2.29,2.29,0,0,1-.69,1.82,4.37,4.37,0,0,1-3,.72,1,1,0,1,0-.23,1.89,6.16,6.16,0,0,0,.7,0A5.82,5.82,0,0,0,62,46a4.13,4.13,0,0,0,1.34-3.25A3.54,3.54,0,0,0,62.19,40C60.57,38.53,57.84,38.73,57.54,38.75Z"/>
        <path d="M26.2,59.5c.08-.24-.08-.65-.41-.33a.3.3,0,0,0-.09.24,5.66,5.66,0,0,0-.7,0c0-.23-.15-.5-.43-.22a.3.3,0,0,0-.09.27,3.52,3.52,0,0,0-1.84.77,2.87,2.87,0,0,0-.3.3c-.07-.1-.2-.13-.36,0A.29.29,0,0,0,22,61a4,4,0,0,0-.44,2.16.63.63,0,0,0,.63.61h0a.64.64,0,0,0,.61-.66,2.3,2.3,0,0,1,.63-1.93,3.24,3.24,0,0,1,2.37-.46.63.63,0,0,0,.36-1.21Z"/>
        <path d="M67.41,26.41c-.15-.65-.32-1.26-.52-2a35.76,35.76,0,0,0-2.05-5.19l-.26-.52-61.27,0L3,19.29A33.52,33.52,0,0,0,.47,26.41L.2,27.57H67.67Z"/>
        <path d="M5.41,15.83c.19-.08.15-.48,0-.56l-.31.49A.26.26,0,0,0,5.41,15.83Z"/>
        <path d="M6.48,15.38a.28.28,0,0,0,.3.46C7,15.72,6.88,15,6.48,15.38Z"/>
        <path d="M8,15.83a.29.29,0,0,0,.12-.31,3.38,3.38,0,0,0,.85,0,.26.26,0,0,0,.39.26.31.31,0,0,0,.12-.34,4.23,4.23,0,0,0,2.07-1.27.26.26,0,0,0,.39.24.28.28,0,0,0,.13-.29,4.49,4.49,0,0,0,1.06,1.09c-.07,0-.16,0-.27.11a.28.28,0,0,0,.3.46c.16-.07.16-.38,0-.51a4.69,4.69,0,0,0,4.74.21.27.27,0,0,0,.38.31c.18-.08.16-.45,0-.55a4.72,4.72,0,0,0,1.14-1.17,5,5,0,0,0,1.21,1.21l-.07.06a.28.28,0,0,0,.3.46.29.29,0,0,0,.12-.29,4.29,4.29,0,0,0,2.11.53,4.44,4.44,0,0,0,1.45-.24.28.28,0,0,0,.26,0,.22.22,0,0,0,.11-.15,4.43,4.43,0,0,0,1.76-1.48,4.39,4.39,0,0,0,1.54,1.34.26.26,0,0,0,.39.29.18.18,0,0,0,.08-.07,5,5,0,0,0,1.8.31,4.2,4.2,0,0,0,3.64-1.72A4.57,4.57,0,0,0,38,16.07a4.09,4.09,0,0,0,3.54-1.76,4.66,4.66,0,0,0,3.85,1.76,4,4,0,0,0,3.35-1.69,3.86,3.86,0,0,0,.28.33,5,5,0,0,0,3.76,1.37,4.14,4.14,0,0,0,3.14-1.2,3.75,3.75,0,0,0,.49-.65,5,5,0,0,0,1.84,1.43,5.28,5.28,0,0,0,4.41-.26L62.33,15c-.26-.38-.53-.76-.81-1.13h0v0l0,0h0L57.68,9.49q-1-1-2.11-1.86c1.84,2.09,3.7,4.25,5.5,6.29l-.38.1L55.75,8.43l-1.82-2q-.59-.42-1.19-.81l1.75,2c1.92,2.17,3.86,4.42,5.75,6.57a2.91,2.91,0,0,1-.47,0L54.22,7.83l-2.67-3-1-.56Q51.77,5.59,53,6.92c1.15,1.31,2.32,2.64,3.48,4a1,1,0,0,0-.52-.06h0l-2.2-2.49c-1.36-1.53-2.74-3.07-4.1-4.6l-.88-.44q1.86,2.06,3.71,4.14c1,1.17,2.07,2.36,3.11,3.55a1,1,0,0,0-.23.23l-2.48-2.8C51.21,6.61,49.57,4.79,48,3l-.82-.36c1.47,1.63,3,3.26,4.41,4.91,1.19,1.35,2.39,2.72,3.58,4.09a1,1,0,0,0,0,.2,2.61,2.61,0,0,1,0,.33L52.29,9c-2-2.21-4-4.43-5.92-6.64L45.59,2c1.81,2,3.63,4,5.43,6,1.33,1.5,2.66,3,4,4.55a2.67,2.67,0,0,1-.12.34l-4.47-5c-1.79-2-3.63-4.06-5.42-6.08l-.72-.24c1.63,1.8,3.27,3.6,4.88,5.43,1.84,2.09,3.71,4.25,5.53,6.32a1.82,1.82,0,0,1-.2.25l0,0L49.89,8.43c-2.08-2.35-4.21-4.7-6.27-7l-.7-.2c1.9,2.1,3.82,4.21,5.71,6.34s3.71,4.24,5.52,6.31a2,2,0,0,1-.33.16L48.36,7.83c-2-2.27-4.07-4.54-6.06-6.81L41.65.87c1.81,2,3.64,4,5.44,6.05,2.1,2.38,4.24,4.86,6.29,7.18a3.4,3.4,0,0,1-.43,0l-5.13-5.8C45.58,5.81,43.27,3.27,41.06.73L40.41.61c2,2.26,4.12,4.54,6.16,6.84s3.95,4.52,5.87,6.71l-.44,0-2.36-2.67a1,1,0,0,0-.47-.53L47,8.43c-2.33-2.63-4.73-5.27-7-7.9L39.29.41c2.12,2.35,4.28,4.72,6.4,7.11,1,1.09,1.93,2.2,2.9,3.31a.94.94,0,0,0-.37.15L46.43,9C43.89,6.08,41.27,3.21,38.8.34L38.15.26c2.32,2.58,4.69,5.16,7,7.79.93,1,1.86,2.12,2.79,3.19a1,1,0,0,0-.16.4L44.7,8.13C42.36,5.48,40,2.84,37.67.2l-.6-.05c2.11,2.34,4.26,4.69,6.37,7.08,1.42,1.61,2.85,3.26,4.27,4.88a4,4,0,0,1-.13.4L44.17,8.65C41.65,5.8,39,3,36.6.11L36,.06c2.29,2.54,4.63,5.1,6.92,7.69,1.5,1.69,3,3.43,4.49,5.13a3,3,0,0,1-.2.33L42.64,8.05c-2.36-2.67-4.79-5.35-7.11-8H35c2.13,2.36,4.29,4.72,6.41,7.12,1.86,2.1,3.74,4.28,5.57,6.36a2.21,2.21,0,0,1-.27.23L42.1,8.58C39.58,5.72,37,2.86,34.52,0h-.59c2.28,2.54,4.62,5.09,6.91,7.68,1.83,2.07,3.69,4.22,5.49,6.28l-.3.12L41.24,8.65C38.69,5.77,36.06,2.88,33.59,0H33c2.3,2.56,4.65,5.12,7,7.73,1.87,2.11,3.76,4.31,5.6,6.4l-.23,0h-.24l-4.4-5C38,6.13,35.22,3.07,32.62,0l-.54,0,0,0c2.43,2.71,4.94,5.43,7.38,8.2l2.27,2.59a.89.89,0,0,0-.32,0l-.15,0-2.66-3C36.3,5.24,34,2.66,31.71.08l-.51,0c2,2.25,4.1,4.51,6.12,6.8C38.5,8.26,39.69,9.63,40.88,11a1,1,0,0,0-.26.27L38,8.35c-2.42-2.74-4.91-5.47-7.27-8.2l-.52,0c2.16,2.4,4.37,4.8,6.52,7.25,1.23,1.39,2.46,2.81,3.69,4.22v0a3.1,3.1,0,0,1-.07.43l-4-4.47a3.54,3.54,0,0,0-.6-.68,6.53,6.53,0,0,1-.8-.83C33.38,4.27,31.6,2.24,29.87.25l-.5.06c.39.42.79.84,1.16,1.27,3.19,3.6,6.5,7.3,9.76,11a2.94,2.94,0,0,1-.18.4L36,8.28C33.65,5.64,31.26,3,29,.37l-.49.07c2.07,2.29,4.18,4.6,6.24,6.93,1.72,1.95,3.47,4,5.17,5.91a2.26,2.26,0,0,1-.2.23L35.12,8.35c-2.32-2.62-4.7-5.24-7-7.85l-.47.08c2.05,2.27,4.14,4.55,6.18,6.87,1.84,2.08,3.71,4.25,5.52,6.32a2.12,2.12,0,0,1-.31.18L34.59,8.88c-2.43-2.74-4.92-5.49-7.3-8.23l-.48.1C29,3.14,31.17,5.54,33.33,8c1.78,2,3.58,4.1,5.34,6.11l-.35.06L33.59,8.8c-2.35-2.66-4.78-5.33-7.08-8L26,.93c2.08,2.31,4.2,4.62,6.28,7C34.16,10,36,12.11,37.8,14.16a3.54,3.54,0,0,1-.52-.06L35,11.54a.92.92,0,0,0-.58-.66L33.06,9.33c-2.45-2.77-5-5.55-7.38-8.32l-.46.11C27.4,3.54,29.62,6,31.8,8.43l2.12,2.41a.94.94,0,0,0-.37.16l-2-2.27c-2.21-2.5-4.49-5-6.67-7.5l-.43.12c1.94,2.14,3.9,4.3,5.83,6.48,1,1.14,2,2.3,3,3.45a1,1,0,0,0-.14.41L31,9.26c-2.3-2.6-4.67-5.21-6.93-7.8l-.43.13c2,2.24,4.08,4.49,6.1,6.77,1.12,1.26,2.24,2.55,3.36,3.83a3,3,0,0,1-.1.38L30.13,9.33c-2.26-2.55-4.57-5.1-6.79-7.65l-.41.14c2,2.19,4,4.38,5.95,6.6,1.32,1.49,2.65,3,4,4.52a2.3,2.3,0,0,1-.21.33l-3-3.42c-2.34-2.64-4.74-5.28-7-7.91l-.42.14C24.21,4.36,26.29,6.64,28.34,9c1.34,1.52,2.69,3.07,4,4.6a2.09,2.09,0,0,1-.34.25l-3.89-4.4C26,7,23.86,4.62,21.77,2.24l-.39.15c1.83,2,3.68,4.05,5.5,6.11,1.6,1.81,3.21,3.67,4.8,5.48l-.33.1-4.07-4.6c-2.06-2.33-4.16-4.65-6.2-7l-.39.15c1.77,2,3.56,3.93,5.32,5.92,1.63,1.84,3.27,3.73,4.88,5.57l-.33,0h-.14L26.74,10c-2.12-2.4-4.3-4.8-6.4-7.2L20,3C21.8,5,23.65,7,25.48,9.11L27,10.86l-.21,0a.87.87,0,0,0-.25,0l-.81-.92c-2-2.27-4.07-4.55-6.06-6.82l-.37.17C21,5.18,22.76,7.09,24.48,9l1.74,2a1,1,0,0,0-.26.29l-.74-.84C23.14,8.12,21,5.77,19,3.44l-.36.19c1.78,2,3.57,3.94,5.34,5.93l1.88,2.13a4,4,0,0,1-.12.45l-2-2.28c-1.79-2-3.61-4-5.39-6.07L17.93,4c1.5,1.65,3,3.31,4.48,5,1,1.18,2.09,2.37,3.13,3.57a3.71,3.71,0,0,1-.19.36l-2.21-2.5C21.3,8.3,19.43,6.22,17.6,4.14l-.34.19C18.8,6,20.35,7.75,21.88,9.48,23,10.71,24.06,12,25.14,13.2l-.21.25-2.64-3-5.3-6-.34.19C18.1,6.3,19.57,7.92,21,9.56c1.21,1.36,2.42,2.76,3.62,4.14a2.31,2.31,0,0,1-.32.2L21.75,11c-1.8-2-3.63-4.08-5.43-6.11l-.33.2c1.5,1.66,3,3.32,4.5,5,1.15,1.3,2.32,2.64,3.47,4a2.43,2.43,0,0,1-.41.1l-3.46-3.91c-1.46-1.65-2.95-3.31-4.42-5l-.31.2C16.51,6.76,17.68,8,18.82,9.33c1.41,1.59,2.83,3.22,4.23,4.83a2.56,2.56,0,0,1-.48-.06l-2.18-2.46v-.06a1,1,0,0,0-.67-.72l-.49-.55c-1.37-1.55-2.76-3.1-4.14-4.65l-.31.2C15.83,7,16.9,8.21,18,9.41l1.27,1.44a1,1,0,0,0-.37.18l-.17-.19c-1.4-1.59-2.83-3.17-4.24-4.76l-.3.21c1.09,1.21,2.19,2.42,3.27,3.64l1.2,1.36a1,1,0,0,0-.11.32v.06l-.81-.91L13.88,6.48l-.3.21c1,1.05,1.9,2.1,2.84,3.16l2,2.23a4,4,0,0,1-.16.41l-1.07-1.21c-1.29-1.45-2.59-2.91-3.89-4.36L13,7.15c1,1.07,1.94,2.15,2.91,3.24L18,12.84a3.19,3.19,0,0,1-.22.33l-2.2-2.48-2.94-3.3-.28.22c.65.72,1.31,1.45,2,2.18,1.07,1.21,2.14,2.44,3.21,3.67a2.54,2.54,0,0,1-.29.24L15.1,11.21l-3-3.36-.27.23c.67.74,1.34,1.48,2,2.23,1,1.18,2.09,2.38,3.14,3.58l-.32.13-2.42-2.74-2.66-3-.27.23L13,10.38c1.09,1.23,2.19,2.49,3.28,3.74a2.88,2.88,0,0,1-.46,0L13.7,11.81,11,8.79,10.74,9l1.65,1.83-.1,0a1,1,0,0,0-.45,0L10.45,9.3l-.26.24L11.53,11a1,1,0,0,0-.23.26L9.95,9.78,9.7,10l1.42,1.59L10.9,12,9.42,10.31l-.24.25,1.53,1.71-.21.28L8.94,10.81l-.24.25L10,12.56l.22.25,0,.05-.24.24L8.43,11.36l-.23.27,1.31,1.46.21.23a2.21,2.21,0,0,1-.35.21l-.12-.14L7.93,11.93l-.23.26.27.3,1,1.17H9a1.51,1.51,0,0,1-.47,0l-1-1.16-.22.27.22.24.39.44a3.26,3.26,0,0,1-.77-.52l-.4.52q-.36.47-.71,1a4.73,4.73,0,0,0,1.71,1A.27.27,0,0,0,8,15.83Zm3.86-1.94,0,0v0Zm47.12,0a4.3,4.3,0,0,1-2-2.37L59.11,14Zm-8.61-.51-.17-.19a2.47,2.47,0,0,1-.47-1.08L51.34,14A2.42,2.42,0,0,1,50.36,13.4Zm-5.84.68a2.88,2.88,0,0,1-.59-.2l-1.42-1.6a3.09,3.09,0,0,1-.16-.61s0-.05,0-.08Zm-9.31-1.75,1.34,1.54A2.74,2.74,0,0,1,35.21,12.33Zm-5.37,1.76a2.69,2.69,0,0,1-.6-.2l-1.34-1.51a3.28,3.28,0,0,1-.19-.72h0Zm-8.09-.36a3.18,3.18,0,0,1-.95-1.08Zm-6.5.39a2.48,2.48,0,0,1-.71-.23l-.84-.95-.39-.43a3.62,3.62,0,0,1-.25-.86v0Z"/>
        <path d="M10.28,15.38a.28.28,0,0,0,.3.46C10.84,15.72,10.69,15,10.28,15.38Z"/>
        <path d="M11.65,15.38a.28.28,0,0,0,.3.46C12.21,15.72,12.05,15,11.65,15.38Z"/>
        <path d="M19.4,15.38a.28.28,0,0,0,.3.46C20,15.72,19.81,15,19.4,15.38Z"/>
        <path d="M25.79,15.38a.27.27,0,0,0,.3.46C26.35,15.72,26.19,15,25.79,15.38Z"/>
        <path d="M27.16,15.38a.27.27,0,0,0,.3.46C27.72,15.72,27.56,15,27.16,15.38Z"/>
        <path d="M5.41,17c.26-.11.1-.86-.3-.46A.28.28,0,0,0,5.41,17Z"/>
        <path d="M6.48,16.59a.28.28,0,0,0,.3.46C7,16.93,6.88,16.19,6.48,16.59Z"/>
        <path d="M7.69,16.59A.28.28,0,0,0,8,17C8.26,16.93,8.1,16.19,7.69,16.59Z"/>
        <path d="M9.06,16.59a.28.28,0,0,0,.3.46C9.63,16.93,9.47,16.19,9.06,16.59Z"/>
        <path d="M10.28,16.59a.28.28,0,0,0,.3.46C10.84,16.93,10.69,16.19,10.28,16.59Z"/>
        <path d="M11.65,16.59A.28.28,0,0,0,12,17C12.21,16.93,12.05,16.19,11.65,16.59Z"/>
        <path d="M12.86,16.59a.28.28,0,0,0,.3.46C13.43,16.93,13.27,16.19,12.86,16.59Z"/>
        <path d="M14.23,16.59a.28.28,0,0,0,.3.46C14.8,16.93,14.64,16.19,14.23,16.59Z"/>
        <path d="M15.45,16.59a.28.28,0,0,0,.3.46C16,16.93,15.85,16.19,15.45,16.59Z"/>
        <path d="M16.82,16.59a.28.28,0,0,0,.3.46C17.38,16.93,17.22,16.19,16.82,16.59Z"/>
        <path d="M18,16.59a.28.28,0,0,0,.3.46C18.6,16.93,18.44,16.19,18,16.59Z"/>
        <path d="M19.4,16.59a.28.28,0,0,0,.3.46C20,16.93,19.81,16.19,19.4,16.59Z"/>
        <path d="M20.62,16.59a.28.28,0,0,0,.3.46C21.18,16.93,21,16.19,20.62,16.59Z"/>
        <path d="M22,16.59a.28.28,0,0,0,.3.46C22.55,16.93,22.39,16.19,22,16.59Z"/>
        <path d="M23.2,16.59a.28.28,0,0,0,.3.46C23.77,16.93,23.61,16.19,23.2,16.59Z"/>
        <path d="M24.57,16.59a.27.27,0,0,0,.3.46C25.14,16.93,25,16.19,24.57,16.59Z"/>
        <path d="M25.79,16.59a.27.27,0,0,0,.3.46C26.35,16.93,26.19,16.19,25.79,16.59Z"/>
        <path d="M27.16,16.59a.27.27,0,0,0,.3.46C27.72,16.93,27.56,16.19,27.16,16.59Z"/>
        <path d="M28.37,16.59a.28.28,0,0,0,.3.46C28.94,16.93,28.78,16.19,28.37,16.59Z"/>
        <path d="M4.2,18.42c.26-.12.1-.86-.3-.46A.28.28,0,0,0,4.2,18.42Z"/>
        <path d="M5.41,18.42c.26-.12.1-.86-.3-.46A.28.28,0,0,0,5.41,18.42Z"/>
        <path d="M6.48,18a.28.28,0,0,0,.3.46C7,18.3,6.88,17.56,6.48,18Z"/>
        <path d="M7.69,18a.28.28,0,0,0,.3.46C8.26,18.3,8.1,17.56,7.69,18Z"/>
        <path d="M9.06,18a.28.28,0,0,0,.3.46C9.63,18.3,9.47,17.56,9.06,18Z"/>
        <path d="M10.28,18a.28.28,0,0,0,.3.46C10.84,18.3,10.69,17.56,10.28,18Z"/>
        <path d="M11.65,18a.28.28,0,0,0,.3.46C12.21,18.3,12.05,17.56,11.65,18Z"/>
        <path d="M12.86,18a.28.28,0,0,0,.3.46C13.43,18.3,13.27,17.56,12.86,18Z"/>
        <path d="M14.23,18a.28.28,0,0,0,.3.46C14.8,18.3,14.64,17.56,14.23,18Z"/>
        <path d="M15.45,18a.28.28,0,0,0,.3.46C16,18.3,15.85,17.56,15.45,18Z"/>
        <path d="M16.82,18a.28.28,0,0,0,.3.46C17.38,18.3,17.22,17.56,16.82,18Z"/>
        <path d="M18,18a.28.28,0,0,0,.3.46C18.6,18.3,18.44,17.56,18,18Z"/>
        <path d="M19.4,18a.28.28,0,0,0,.3.46C20,18.3,19.81,17.56,19.4,18Z"/>
        <path d="M20.62,18a.28.28,0,0,0,.3.46C21.18,18.3,21,17.56,20.62,18Z"/>
        <path d="M22,18a.28.28,0,0,0,.3.46C22.55,18.3,22.39,17.56,22,18Z"/>
        <path d="M23.2,18a.28.28,0,0,0,.3.46C23.77,18.3,23.61,17.56,23.2,18Z"/>
        <path d="M24.57,18a.28.28,0,0,0,.3.46C25.14,18.3,25,17.56,24.57,18Z"/>
        <path d="M25.79,18a.28.28,0,0,0,.3.46C26.35,18.3,26.19,17.56,25.79,18Z"/>
        <path d="M27.16,18a.28.28,0,0,0,.3.46C27.72,18.3,27.56,17.56,27.16,18Z"/>
        <path d="M28.37,18a.28.28,0,0,0,.3.46C28.94,18.3,28.78,17.56,28.37,18Z"/>
        <path d="M.4,28.6c.25-.11.12-.77-.24-.5l-.08.45A.26.26,0,0,0,.4,28.6Z"/>
        <path d="M1.31,28.15a.28.28,0,0,0,.3.46C1.87,28.49,1.71,27.74,1.31,28.15Z"/>
        <path d="M2.68,28.15a.28.28,0,0,0,.3.46C3.24,28.49,3.08,27.74,2.68,28.15Z"/>
        <path d="M3.89,28.15a.28.28,0,0,0,.3.46C4.46,28.49,4.3,27.74,3.89,28.15Z"/>
        <path d="M5.11,28.15a.28.28,0,0,0,.3.46C5.67,28.49,5.52,27.74,5.11,28.15Z"/>
        <path d="M6.48,28.15a.28.28,0,0,0,.3.46C7,28.49,6.88,27.74,6.48,28.15Z"/>
        <path d="M7.69,28.15a.28.28,0,0,0,.3.46C8.26,28.49,8.1,27.74,7.69,28.15Z"/>
        <path d="M9.06,28.15a.28.28,0,0,0,.3.46C9.63,28.49,9.47,27.74,9.06,28.15Z"/>
        <path d="M10.28,28.15a.28.28,0,0,0,.3.46C10.84,28.49,10.69,27.74,10.28,28.15Z"/>
        <path d="M11.65,28.15a.28.28,0,0,0,.3.46C12.21,28.49,12.05,27.74,11.65,28.15Z"/>
        <path d="M12.86,28.15a.28.28,0,0,0,.3.46C13.43,28.49,13.27,27.74,12.86,28.15Z"/>
        <path d="M14.23,28.15a.28.28,0,0,0,.3.46C14.8,28.49,14.64,27.74,14.23,28.15Z"/>
        <path d="M15.45,28.15a.28.28,0,0,0,.3.46C16,28.49,15.85,27.74,15.45,28.15Z"/>
        <path d="M16.82,28.15a.28.28,0,0,0,.3.46C17.38,28.49,17.22,27.74,16.82,28.15Z"/>
        <path d="M18,28.15a.28.28,0,0,0,.3.46C18.6,28.49,18.44,27.74,18,28.15Z"/>
        <path d="M19.71,28.6c.26-.12.1-.86-.3-.46A.28.28,0,0,0,19.71,28.6Z"/>
        <path d="M20.92,28.6c.26-.12.1-.86-.3-.46A.28.28,0,0,0,20.92,28.6Z"/>
        <path d="M22.29,28.6c.26-.12.1-.86-.3-.46A.28.28,0,0,0,22.29,28.6Z"/>
        <path d="M23.51,28.6c.26-.12.1-.86-.3-.46A.28.28,0,0,0,23.51,28.6Z"/>
        <path d="M24.88,28.6c.26-.12.1-.86-.3-.46A.28.28,0,0,0,24.88,28.6Z"/>
        <path d="M.09,29.52A.28.28,0,0,0,.4,30C.66,29.86.5,29.11.09,29.52Z"/>
        <path d="M1.31,29.52a.28.28,0,0,0,.3.46C1.87,29.86,1.71,29.11,1.31,29.52Z"/>
        <path d="M2.68,29.52A.28.28,0,0,0,3,30C3.24,29.86,3.08,29.11,2.68,29.52Z"/>
        <path d="M3.89,29.52a.28.28,0,0,0,.3.46C4.46,29.86,4.3,29.11,3.89,29.52Z"/>
        <path d="M5.11,29.52a.28.28,0,0,0,.3.46C5.67,29.86,5.52,29.11,5.11,29.52Z"/>
        <path d="M6.48,29.52a.28.28,0,0,0,.3.46C7,29.86,6.88,29.11,6.48,29.52Z"/>
        <path d="M7.69,29.52A.28.28,0,0,0,8,30C8.26,29.86,8.1,29.11,7.69,29.52Z"/>
        <path d="M9.06,29.52a.28.28,0,0,0,.3.46C9.63,29.86,9.47,29.11,9.06,29.52Z"/>
        <path d="M10.28,29.52a.28.28,0,0,0,.3.46C10.84,29.86,10.69,29.11,10.28,29.52Z"/>
        <path d="M11.65,29.52A.28.28,0,0,0,12,30C12.21,29.86,12.05,29.11,11.65,29.52Z"/>
        <path d="M12.86,29.52a.28.28,0,0,0,.3.46C13.43,29.86,13.27,29.11,12.86,29.52Z"/>
        <path d="M14.23,29.52a.28.28,0,0,0,.3.46C14.8,29.86,14.64,29.11,14.23,29.52Z"/>
        <path d="M15.45,29.52a.28.28,0,0,0,.3.46C16,29.86,15.85,29.11,15.45,29.52Z"/>
        <path d="M16.82,29.52a.28.28,0,0,0,.3.46C17.38,29.86,17.22,29.11,16.82,29.52Z"/>
        <path d="M18,29.52a.28.28,0,0,0,.3.46C18.6,29.86,18.44,29.11,18,29.52Z"/>
        <path d="M19.71,30c.26-.12.1-.86-.3-.46A.28.28,0,0,0,19.71,30Z"/>
        <path d="M20.92,30c.26-.12.1-.86-.3-.46A.28.28,0,0,0,20.92,30Z"/>
        <path d="M22.29,30c.26-.12.1-.86-.3-.46A.28.28,0,0,0,22.29,30Z"/>
        <path d="M23.51,30c.26-.12.1-.86-.3-.46A.28.28,0,0,0,23.51,30Z"/>
        <path d="M24.88,30c.26-.12.1-.86-.3-.46A.28.28,0,0,0,24.88,30Z"/>
        <path d="M.09,30.73a.28.28,0,0,0,.3.46C.66,31.07.5,30.33.09,30.73Z"/>
        <path d="M1.31,30.73a.28.28,0,0,0,.3.46C1.87,31.07,1.71,30.33,1.31,30.73Z"/>
        <path d="M2.68,30.73a.28.28,0,0,0,.3.46C3.24,31.07,3.08,30.33,2.68,30.73Z"/>
        <path d="M3.89,30.73a.28.28,0,0,0,.3.46C4.46,31.07,4.3,30.33,3.89,30.73Z"/>
        <path d="M5.11,30.73a.28.28,0,0,0,.3.46C5.67,31.07,5.52,30.33,5.11,30.73Z"/>
        <path d="M6.48,30.73a.28.28,0,0,0,.3.46C7,31.07,6.88,30.33,6.48,30.73Z"/>
        <path d="M7.69,30.73a.28.28,0,0,0,.3.46C8.26,31.07,8.1,30.33,7.69,30.73Z"/>
        <path d="M9.06,30.73a.28.28,0,0,0,.3.46C9.63,31.07,9.47,30.33,9.06,30.73Z"/>
        <path d="M10.28,30.73a.28.28,0,0,0,.3.46C10.84,31.07,10.69,30.33,10.28,30.73Z"/>
        <path d="M11.65,30.73a.28.28,0,0,0,.3.46C12.21,31.07,12.05,30.33,11.65,30.73Z"/>
        <path d="M12.86,30.73a.28.28,0,0,0,.3.46C13.43,31.07,13.27,30.33,12.86,30.73Z"/>
        <path d="M14.23,30.73a.28.28,0,0,0,.3.46C14.8,31.07,14.64,30.33,14.23,30.73Z"/>
        <path d="M15.45,30.73a.28.28,0,0,0,.3.46C16,31.07,15.85,30.33,15.45,30.73Z"/>
        <path d="M16.82,30.73a.28.28,0,0,0,.3.46C17.38,31.07,17.22,30.33,16.82,30.73Z"/>
        <path d="M18,30.73a.28.28,0,0,0,.3.46C18.6,31.07,18.44,30.33,18,30.73Z"/>
        <path d="M19.71,31.19c.26-.11.1-.86-.3-.46A.28.28,0,0,0,19.71,31.19Z"/>
        <path d="M20.92,31.19c.26-.11.1-.86-.3-.46A.28.28,0,0,0,20.92,31.19Z"/>
        <path d="M22.29,31.19c.26-.11.1-.86-.3-.46A.28.28,0,0,0,22.29,31.19Z"/>
        <path d="M23.51,31.19c.26-.11.1-.86-.3-.46A.28.28,0,0,0,23.51,31.19Z"/>
        <path d="M24.88,31.19c.26-.11.1-.86-.3-.46A.28.28,0,0,0,24.88,31.19Z"/>
        <path d="M.09,32.1a.28.28,0,0,0,.3.46C.66,32.44.5,31.69.09,32.1Z"/>
        <path d="M1.31,32.1a.28.28,0,0,0,.3.46C1.87,32.44,1.71,31.69,1.31,32.1Z"/>
        <path d="M2.68,32.1a.28.28,0,0,0,.3.46C3.24,32.44,3.08,31.69,2.68,32.1Z"/>
        <path d="M3.89,32.1a.28.28,0,0,0,.3.46C4.46,32.44,4.3,31.69,3.89,32.1Z"/>
        <path d="M5.11,32.1a.28.28,0,0,0,.3.46C5.67,32.44,5.52,31.69,5.11,32.1Z"/>
        <path d="M6.48,32.1a.28.28,0,0,0,.3.46C7,32.44,6.88,31.69,6.48,32.1Z"/>
        <path d="M7.69,32.1a.28.28,0,0,0,.3.46C8.26,32.44,8.1,31.69,7.69,32.1Z"/>
        <path d="M9.06,32.1a.28.28,0,0,0,.3.46C9.63,32.44,9.47,31.69,9.06,32.1Z"/>
        <path d="M10.28,32.1a.28.28,0,0,0,.3.46C10.84,32.44,10.69,31.69,10.28,32.1Z"/>
        <path d="M11.65,32.1a.28.28,0,0,0,.3.46C12.21,32.44,12.05,31.69,11.65,32.1Z"/>
        <path d="M12.86,32.1a.28.28,0,0,0,.3.46C13.43,32.44,13.27,31.69,12.86,32.1Z"/>
        <path d="M14.23,32.1a.28.28,0,0,0,.3.46C14.8,32.44,14.64,31.69,14.23,32.1Z"/>
        <path d="M15.45,32.1a.28.28,0,0,0,.3.46C16,32.44,15.85,31.69,15.45,32.1Z"/>
        <path d="M16.82,32.1a.28.28,0,0,0,.3.46C17.38,32.44,17.22,31.69,16.82,32.1Z"/>
        <path d="M18,32.1a.28.28,0,0,0,.3.46C18.6,32.44,18.44,31.69,18,32.1Z"/>
        <path d="M19.71,32.56c.26-.12.1-.86-.3-.46A.28.28,0,0,0,19.71,32.56Z"/>
        <path d="M20.92,32.56c.26-.12.1-.86-.3-.46A.28.28,0,0,0,20.92,32.56Z"/>
        <path d="M22.29,32.56c.26-.12.1-.86-.3-.46A.28.28,0,0,0,22.29,32.56Z"/>
        <path d="M23.51,32.56c.26-.12.1-.86-.3-.46A.28.28,0,0,0,23.51,32.56Z"/>
        <path d="M24.88,32.56c.26-.12.1-.86-.3-.46A.28.28,0,0,0,24.88,32.56Z"/>
        <path d="M.09,33.32a.28.28,0,0,0,.3.46C.66,33.66.5,32.91.09,33.32Z"/>
        <path d="M1.31,33.32a.27.27,0,0,0,.3.46C1.87,33.66,1.71,32.91,1.31,33.32Z"/>
        <path d="M2.68,33.32a.28.28,0,0,0,.3.46C3.24,33.66,3.08,32.91,2.68,33.32Z"/>
        <path d="M3.89,33.32a.28.28,0,0,0,.3.46C4.46,33.66,4.3,32.91,3.89,33.32Z"/>
        <path d="M6.48,33.32a.28.28,0,0,0,.3.46C7,33.66,6.88,32.91,6.48,33.32Z"/>
        <path d="M7.69,33.32a.28.28,0,0,0,.3.46C8.26,33.66,8.1,32.91,7.69,33.32Z"/>
        <path d="M9.06,33.32a.28.28,0,0,0,.3.46C9.63,33.66,9.47,32.91,9.06,33.32Z"/>
        <path d="M10.28,33.32a.28.28,0,0,0,.3.46C10.84,33.66,10.69,32.91,10.28,33.32Z"/>
        <path d="M11.65,33.32a.28.28,0,0,0,.3.46C12.21,33.66,12.05,32.91,11.65,33.32Z"/>
        <path d="M12.86,33.32a.28.28,0,0,0,.3.46C13.43,33.66,13.27,32.91,12.86,33.32Z"/>
        <path d="M14.23,33.32a.28.28,0,0,0,.3.46C14.8,33.66,14.64,32.91,14.23,33.32Z"/>
        <path d="M15.45,33.32a.28.28,0,0,0,.3.46C16,33.66,15.85,32.91,15.45,33.32Z"/>
        <path d="M18,33.32a.28.28,0,0,0,.3.46C18.6,33.66,18.44,32.91,18,33.32Z"/>
        <path d="M19.71,33.77c.26-.11.1-.86-.3-.46A.28.28,0,0,0,19.71,33.77Z"/>
        <path d="M20.92,33.77c.26-.11.1-.86-.3-.46A.28.28,0,0,0,20.92,33.77Z"/>
        <path d="M22.29,33.77c.26-.11.1-.86-.3-.46A.28.28,0,0,0,22.29,33.77Z"/>
        <path d="M23.51,33.77c.26-.11.1-.86-.3-.46A.28.28,0,0,0,23.51,33.77Z"/>
        <path d="M24.88,33.77c.26-.11.1-.86-.3-.46A.27.27,0,0,0,24.88,33.77Z"/>
        <path d="M.09,34.69a.28.28,0,0,0,.3.46C.66,35,.5,34.28.09,34.69Z"/>
        <path d="M1.31,34.69a.28.28,0,0,0,.3.46C1.87,35,1.71,34.28,1.31,34.69Z"/>
        <path d="M2.68,34.69a.28.28,0,0,0,.3.46C3.24,35,3.08,34.28,2.68,34.69Z"/>
        <path d="M3.89,34.69a.28.28,0,0,0,.3.46C4.46,35,4.3,34.28,3.89,34.69Z"/>
        <path d="M7.69,34.69a.28.28,0,0,0,.3.46C8.26,35,8.1,34.28,7.69,34.69Z"/>
        <path d="M9.06,34.69a.28.28,0,0,0,.3.46C9.63,35,9.47,34.28,9.06,34.69Z"/>
        <path d="M10.28,34.69a.28.28,0,0,0,.3.46C10.84,35,10.69,34.28,10.28,34.69Z"/>
        <path d="M11.65,34.69a.28.28,0,0,0,.3.46C12.21,35,12.05,34.28,11.65,34.69Z"/>
        <path d="M12.86,34.69a.28.28,0,0,0,.3.46C13.43,35,13.27,34.28,12.86,34.69Z"/>
        <path d="M14.23,34.69a.28.28,0,0,0,.3.46C14.8,35,14.64,34.28,14.23,34.69Z"/>
        <path d="M15.45,34.69a.28.28,0,0,0,.3.46C16,35,15.85,34.28,15.45,34.69Z"/>
        <path d="M19.71,35.14c.26-.12.1-.86-.3-.46A.28.28,0,0,0,19.71,35.14Z"/>
        <path d="M20.92,35.14c.26-.12.1-.86-.3-.46A.28.28,0,0,0,20.92,35.14Z"/>
        <path d="M22.29,35.14c.26-.12.1-.86-.3-.46A.28.28,0,0,0,22.29,35.14Z"/>
        <path d="M23.51,35.14c.26-.12.1-.86-.3-.46A.28.28,0,0,0,23.51,35.14Z"/>
        <path d="M24.88,35.14c.26-.12.1-.86-.3-.46A.28.28,0,0,0,24.88,35.14Z"/>
        <path d="M29.74,34.69a.28.28,0,0,0,.3.46C30.31,35,30.15,34.28,29.74,34.69Z"/>
        <path d="M31,34.69a.28.28,0,0,0,.3.46C31.52,35,31.36,34.28,31,34.69Z"/>
        <path d="M32.33,34.69a.28.28,0,0,0,.3.46C32.89,35,32.73,34.28,32.33,34.69Z"/>
        <path d="M33.54,34.69a.28.28,0,0,0,.3.46C34.11,35,33.95,34.28,33.54,34.69Z"/>
        <path d="M34.91,34.69a.28.28,0,0,0,.3.46C35.47,35,35.32,34.28,34.91,34.69Z"/>
        <path d="M.09,35.91a.28.28,0,0,0,.3.46C.66,36.25.5,35.5.09,35.91Z"/>
        <path d="M1.31,35.91a.28.28,0,0,0,.3.46C1.87,36.25,1.71,35.5,1.31,35.91Z"/>
        <path d="M2.68,35.91a.28.28,0,0,0,.3.46C3.24,36.25,3.08,35.5,2.68,35.91Z"/>
        <path d="M3.89,35.91a.28.28,0,0,0,.3.46C4.46,36.25,4.3,35.5,3.89,35.91Z"/>
        <path d="M7.69,35.91a.28.28,0,0,0,.3.46C8.26,36.25,8.1,35.5,7.69,35.91Z"/>
        <path d="M9.06,35.91a.28.28,0,0,0,.3.46C9.63,36.25,9.47,35.5,9.06,35.91Z"/>
        <path d="M10.28,35.91a.28.28,0,0,0,.3.46C10.84,36.25,10.69,35.5,10.28,35.91Z"/>
        <path d="M11.65,35.91a.28.28,0,0,0,.3.46C12.21,36.25,12.05,35.5,11.65,35.91Z"/>
        <path d="M12.86,35.91a.28.28,0,0,0,.3.46C13.43,36.25,13.27,35.5,12.86,35.91Z"/>
        <path d="M14.23,35.91a.28.28,0,0,0,.3.46C14.8,36.25,14.64,35.5,14.23,35.91Z"/>
        <path d="M15.45,35.91a.28.28,0,0,0,.3.46C16,36.25,15.85,35.5,15.45,35.91Z"/>
        <path d="M18,35.91a.28.28,0,0,0,.3.46C18.6,36.25,18.44,35.5,18,35.91Z"/>
        <path d="M19.71,36.37c.26-.12.1-.87-.3-.46A.28.28,0,0,0,19.71,36.37Z"/>
        <path d="M20.92,36.37c.26-.12.1-.87-.3-.46A.28.28,0,0,0,20.92,36.37Z"/>
        <path d="M22.29,36.37c.26-.12.1-.87-.3-.46A.28.28,0,0,0,22.29,36.37Z"/>
        <path d="M23.51,36.37c.26-.12.1-.87-.3-.46A.28.28,0,0,0,23.51,36.37Z"/>
        <path d="M24.88,36.37c.26-.12.1-.87-.3-.46A.28.28,0,0,0,24.88,36.37Z"/>
        <path d="M29.74,35.91a.28.28,0,0,0,.3.46C30.31,36.25,30.15,35.5,29.74,35.91Z"/>
        <path d="M31,35.91a.28.28,0,0,0,.3.46C31.52,36.25,31.36,35.5,31,35.91Z"/>
        <path d="M32.33,35.91a.28.28,0,0,0,.3.46C32.89,36.25,32.73,35.5,32.33,35.91Z"/>
        <path d="M33.54,35.91a.28.28,0,0,0,.3.46C34.11,36.25,33.95,35.5,33.54,35.91Z"/>
        <path d="M34.91,35.91a.28.28,0,0,0,.3.46C35.47,36.25,35.32,35.5,34.91,35.91Z"/>
        <path d="M.09,37.28a.27.27,0,0,0,.3.45C.66,37.62.5,36.87.09,37.28Z"/>
        <path d="M1.31,37.28a.27.27,0,0,0,.3.45C1.87,37.62,1.71,36.87,1.31,37.28Z"/>
        <path d="M2.68,37.28a.28.28,0,0,0,.3.45C3.24,37.62,3.08,36.87,2.68,37.28Z"/>
        <path d="M3.89,37.28a.28.28,0,0,0,.3.45C4.46,37.62,4.3,36.87,3.89,37.28Z"/>
        <path d="M7.69,37.28a.28.28,0,0,0,.3.45C8.26,37.62,8.1,36.87,7.69,37.28Z"/>
        <path d="M9.06,37.28a.28.28,0,0,0,.3.45C9.63,37.62,9.47,36.87,9.06,37.28Z"/>
        <path d="M10.28,37.28a.28.28,0,0,0,.3.45C10.84,37.62,10.69,36.87,10.28,37.28Z"/>
        <path d="M11.65,37.28a.28.28,0,0,0,.3.45C12.21,37.62,12.05,36.87,11.65,37.28Z"/>
        <path d="M12.86,37.28a.28.28,0,0,0,.3.45C13.43,37.62,13.27,36.87,12.86,37.28Z"/>
        <path d="M14.23,37.28a.28.28,0,0,0,.3.45C14.8,37.62,14.64,36.87,14.23,37.28Z"/>
        <path d="M18,37.28a.28.28,0,0,0,.3.45C18.6,37.62,18.44,36.87,18,37.28Z"/>
        <path d="M19.71,37.73c.26-.11.1-.86-.3-.45A.28.28,0,0,0,19.71,37.73Z"/>
        <path d="M20.92,37.73c.26-.11.1-.86-.3-.45A.28.28,0,0,0,20.92,37.73Z"/>
        <path d="M22.29,37.73c.26-.11.1-.86-.3-.45A.28.28,0,0,0,22.29,37.73Z"/>
        <path d="M23.51,37.73c.26-.11.1-.86-.3-.45A.28.28,0,0,0,23.51,37.73Z"/>
        <path d="M24.88,37.73c.26-.11.1-.86-.3-.45A.27.27,0,0,0,24.88,37.73Z"/>
        <path d="M29.74,37.28a.27.27,0,0,0,.3.45C30.31,37.62,30.15,36.87,29.74,37.28Z"/>
        <path d="M31,37.28a.27.27,0,0,0,.3.45C31.52,37.62,31.36,36.87,31,37.28Z"/>
        <path d="M32.33,37.28a.27.27,0,0,0,.3.45C32.89,37.62,32.73,36.87,32.33,37.28Z"/>
        <path d="M33.54,37.28a.27.27,0,0,0,.3.45C34.11,37.62,33.95,36.87,33.54,37.28Z"/>
        <path d="M34.91,37.28a.28.28,0,0,0,.3.45C35.47,37.62,35.32,36.87,34.91,37.28Z"/>
        <path d="M.09,38.5A.27.27,0,0,0,.4,39C.66,38.84.5,38.09.09,38.5Z"/>
        <path d="M1.31,38.5a.27.27,0,0,0,.3.45C1.87,38.84,1.71,38.09,1.31,38.5Z"/>
        <path d="M2.68,38.5A.28.28,0,0,0,3,39C3.24,38.84,3.08,38.09,2.68,38.5Z"/>
        <path d="M3.89,38.5a.28.28,0,0,0,.3.45C4.46,38.84,4.3,38.09,3.89,38.5Z"/>
        <path d="M9.06,38.5a.28.28,0,0,0,.3.45C9.63,38.84,9.47,38.09,9.06,38.5Z"/>
        <path d="M10.28,38.5a.28.28,0,0,0,.3.45C10.84,38.84,10.69,38.09,10.28,38.5Z"/>
        <path d="M11.65,38.5A.28.28,0,0,0,12,39C12.21,38.84,12.05,38.09,11.65,38.5Z"/>
        <path d="M12.86,38.5a.28.28,0,0,0,.3.45C13.43,38.84,13.27,38.09,12.86,38.5Z"/>
        <path d="M18,38.5a.28.28,0,0,0,.3.45C18.6,38.84,18.44,38.09,18,38.5Z"/>
        <path d="M19.71,39c.26-.11.1-.86-.3-.45A.28.28,0,0,0,19.71,39Z"/>
        <path d="M20.92,39c.26-.11.1-.86-.3-.45A.28.28,0,0,0,20.92,39Z"/>
        <path d="M22.29,39c.26-.11.1-.86-.3-.45A.28.28,0,0,0,22.29,39Z"/>
        <path d="M23.51,39c.26-.11.1-.86-.3-.45A.28.28,0,0,0,23.51,39Z"/>
        <path d="M24.88,39c.26-.11.1-.86-.3-.45A.27.27,0,0,0,24.88,39Z"/>
        <path d="M29.74,38.5A.27.27,0,0,0,30,39C30.31,38.84,30.15,38.09,29.74,38.5Z"/>
        <path d="M31,38.5a.27.27,0,0,0,.3.45C31.52,38.84,31.36,38.09,31,38.5Z"/>
        <path d="M32.33,38.5a.27.27,0,0,0,.3.45C32.89,38.84,32.73,38.09,32.33,38.5Z"/>
        <path d="M33.54,38.5a.27.27,0,0,0,.3.45C34.11,38.84,33.95,38.09,33.54,38.5Z"/>
        <path d="M34.91,38.5a.28.28,0,0,0,.3.45C35.47,38.84,35.32,38.09,34.91,38.5Z"/>
        <path d="M.09,39.86A.3.3,0,0,0,0,40a.28.28,0,0,0,0,.26.26.26,0,0,0,.33.06C.66,40.2.5,39.46.09,39.86Z"/>
        <path d="M1.31,39.86a.28.28,0,0,0,.3.46C1.87,40.2,1.71,39.46,1.31,39.86Z"/>
        <path d="M2.68,39.86a.28.28,0,0,0,.3.46C3.24,40.2,3.08,39.46,2.68,39.86Z"/>
        <path d="M3.89,39.86a.28.28,0,0,0,.3.46C4.46,40.2,4.3,39.46,3.89,39.86Z"/>
        <path d="M5.11,39.86a.28.28,0,0,0,.3.46C5.67,40.2,5.52,39.46,5.11,39.86Z"/>
        <path d="M16.82,39.86a.28.28,0,0,0,.3.46C17.38,40.2,17.22,39.46,16.82,39.86Z"/>
        <path d="M18,39.86a.28.28,0,0,0,.3.46C18.6,40.2,18.44,39.46,18,39.86Z"/>
        <path d="M19.71,40.32c.26-.12.1-.86-.3-.46A.28.28,0,0,0,19.71,40.32Z"/>
        <path d="M20.92,40.32c.26-.12.1-.86-.3-.46A.28.28,0,0,0,20.92,40.32Z"/>
        <path d="M22.29,40.32c.26-.12.1-.86-.3-.46A.28.28,0,0,0,22.29,40.32Z"/>
        <path d="M23.51,40.32c.26-.12.1-.86-.3-.46A.28.28,0,0,0,23.51,40.32Z"/>
        <path d="M24.88,40.32c.26-.12.1-.86-.3-.46A.28.28,0,0,0,24.88,40.32Z"/>
        <path d="M29.74,39.86a.27.27,0,0,0,.3.46C30.31,40.2,30.15,39.46,29.74,39.86Z"/>
        <path d="M31,39.86a.28.28,0,0,0,.3.46C31.52,40.2,31.36,39.46,31,39.86Z"/>
        <path d="M32.33,39.86a.28.28,0,0,0,.3.46C32.89,40.2,32.73,39.46,32.33,39.86Z"/>
        <path d="M33.54,39.86a.28.28,0,0,0,.3.46C34.11,40.2,33.95,39.46,33.54,39.86Z"/>
        <path d="M34.91,39.86a.28.28,0,0,0,.3.46C35.47,40.2,35.32,39.46,34.91,39.86Z"/>
        <path d="M36.13,39.86a.28.28,0,0,0,.3.46C36.69,40.2,36.53,39.46,36.13,39.86Z"/>
        <path d="M.2,41c0,.19.07.37.11.56l.09,0C.63,41.43.52,40.82.2,41Z"/>
        <path d="M1.31,41.08a.28.28,0,0,0,.3.46C1.87,41.42,1.71,40.68,1.31,41.08Z"/>
        <path d="M2.68,41.08a.28.28,0,0,0,.3.46C3.24,41.42,3.08,40.68,2.68,41.08Z"/>
        <path d="M3.89,41.08a.28.28,0,0,0,.3.46C4.46,41.42,4.3,40.68,3.89,41.08Z"/>
        <path d="M5.11,41.08a.28.28,0,0,0,.3.46C5.67,41.42,5.52,40.68,5.11,41.08Z"/>
        <path d="M6.48,41.08a.28.28,0,0,0,.3.46C7,41.42,6.88,40.68,6.48,41.08Z"/>
        <path d="M14.54,41.54a.27.27,0,0,0,.13-.26,5.74,5.74,0,0,0,1.14-.89A6.49,6.49,0,0,0,16.87,39a.28.28,0,0,0,.25,0c.17-.08.16-.42,0-.54A10,10,0,0,0,18,35a.26.26,0,0,0,.37.12c.26-.12.1-.86-.3-.46l-.05.07c0-.09,0-.15,0-.16a.94.94,0,0,0-.77-.92c.11-.23-.05-.7-.4-.36a.29.29,0,0,0,0,.38,1,1,0,0,0-.7.92,8.43,8.43,0,0,1-.49,2.56.44.44,0,0,0-.15.1.29.29,0,0,0,0,.37,5,5,0,0,1-.78,1.22c.13-.22,0-.73-.39-.38a.28.28,0,0,0,.3.45l0,0-.12.13a3.83,3.83,0,0,1-1.19.81c-.06-.14-.2-.2-.39,0a.31.31,0,0,0-.09.19,4.78,4.78,0,0,1-.72.15c.09-.23-.08-.67-.41-.34a.29.29,0,0,0,0,.38h-.37l-.57,0c.12-.22,0-.71-.39-.37a.3.3,0,0,0-.08.3A4.47,4.47,0,0,1,9.49,40c0-.18-.16-.32-.37-.16a3.82,3.82,0,0,1-1.06-.75L8,39H8c.26-.11.1-.86-.3-.45l-.06.08a6.21,6.21,0,0,1-1-2.18l.12,0c.24-.11.12-.78-.23-.52-.05-.3-.09-.56-.1-.77a.26.26,0,0,0,.34.07c.26-.12.1-.86-.3-.46l-.05.07c0-.09,0-.14,0-.15a1,1,0,0,0-.91-1c.1-.23-.07-.68-.4-.34a.29.29,0,0,0,0,.41,1,1,0,0,0-.58.87,10.13,10.13,0,0,0,.5,3v0c.09.27.19.54.32.81a.31.31,0,0,0-.23.12.28.28,0,0,0,.3.45.23.23,0,0,0,.12-.18,6.77,6.77,0,0,0,.85,1.29.26.26,0,0,0,.26.29l0,0a5.77,5.77,0,0,0,.94.77.27.27,0,0,0,.37.37.19.19,0,0,0,.09-.1,6.66,6.66,0,0,0,3.15.72,6.76,6.76,0,0,0,3-.64A.28.28,0,0,0,14.54,41.54Z"/>
        <path d="M15.45,41.08a.28.28,0,0,0,.3.46C16,41.42,15.85,40.68,15.45,41.08Z"/>
        <path d="M16.82,41.08a.28.28,0,0,0,.3.46C17.38,41.42,17.22,40.68,16.82,41.08Z"/>
        <path d="M18,41.08a.28.28,0,0,0,.3.46C18.6,41.42,18.44,40.68,18,41.08Z"/>
        <path d="M19.71,41.54c.26-.12.1-.86-.3-.46A.28.28,0,0,0,19.71,41.54Z"/>
        <path d="M20.92,41.54c.26-.12.1-.86-.3-.46A.28.28,0,0,0,20.92,41.54Z"/>
        <path d="M29.74,41.08a.27.27,0,0,0,.3.46C30.31,41.42,30.15,40.68,29.74,41.08Z"/>
        <path d="M31,41.08a.28.28,0,0,0,.3.46C31.52,41.42,31.36,40.68,31,41.08Z"/>
        <path d="M32.33,41.08a.28.28,0,0,0,.3.46C32.89,41.42,32.73,40.68,32.33,41.08Z"/>
        <path d="M33.54,41.08a.28.28,0,0,0,.3.46C34.11,41.42,33.95,40.68,33.54,41.08Z"/>
        <path d="M34.91,41.08a.28.28,0,0,0,.3.46C35.47,41.42,35.32,40.68,34.91,41.08Z"/>
        <path d="M36.13,41.08a.28.28,0,0,0,.3.46C36.69,41.42,36.53,40.68,36.13,41.08Z"/>
        <path d="M37.8,41.54c.26-.12.1-.86-.3-.46A.28.28,0,0,0,37.8,41.54Z"/>
        <path d="M1.31,42.45a.28.28,0,0,0,.3.46C1.87,42.79,1.71,42,1.31,42.45Z"/>
        <path d="M2.68,42.45a.28.28,0,0,0,.3.46C3.24,42.79,3.08,42,2.68,42.45Z"/>
        <path d="M3.89,42.45a.28.28,0,0,0,.3.46C4.46,42.79,4.3,42,3.89,42.45Z"/>
        <path d="M5.11,42.45a.28.28,0,0,0,.3.46C5.67,42.79,5.52,42,5.11,42.45Z"/>
        <path d="M6.48,42.45a.28.28,0,0,0,.3.46C7,42.79,6.88,42,6.48,42.45Z"/>
        <path d="M7.69,42.45a.28.28,0,0,0,.3.46C8.26,42.79,8.1,42,7.69,42.45Z"/>
        <path d="M9.06,42.45a.28.28,0,0,0,.3.46C9.63,42.79,9.47,42,9.06,42.45Z"/>
        <path d="M10.28,42.45a.28.28,0,0,0,.3.46C10.84,42.79,10.69,42,10.28,42.45Z"/>
        <path d="M11.65,42.45a.28.28,0,0,0,.3.46C12.21,42.79,12.05,42,11.65,42.45Z"/>
        <path d="M12.86,42.45a.28.28,0,0,0,.3.46C13.43,42.79,13.27,42,12.86,42.45Z"/>
        <path d="M14.23,42.45a.28.28,0,0,0,.3.46C14.8,42.79,14.64,42,14.23,42.45Z"/>
        <path d="M15.45,42.45a.28.28,0,0,0,.3.46C16,42.79,15.85,42,15.45,42.45Z"/>
        <path d="M16.82,42.45a.28.28,0,0,0,.3.46C17.38,42.79,17.22,42,16.82,42.45Z"/>
        <path d="M18,42.45a.28.28,0,0,0,.3.46C18.6,42.79,18.44,42,18,42.45Z"/>
        <path d="M19.71,42.9c.26-.12.1-.86-.3-.46A.28.28,0,0,0,19.71,42.9Z"/>
        <path d="M31,42.45a.28.28,0,0,0,.3.46C31.52,42.79,31.36,42,31,42.45Z"/>
        <path d="M32.33,42.45a.28.28,0,0,0,.3.46C32.89,42.79,32.73,42,32.33,42.45Z"/>
        <path d="M33.54,42.45a.28.28,0,0,0,.3.46C34.11,42.79,33.95,42,33.54,42.45Z"/>
        <path d="M34.91,42.45a.28.28,0,0,0,.3.46C35.47,42.79,35.32,42,34.91,42.45Z"/>
        <path d="M36.13,42.45a.28.28,0,0,0,.3.46C36.69,42.79,36.53,42,36.13,42.45Z"/>
        <path d="M37.8,42.9c.26-.12.1-.86-.3-.46A.28.28,0,0,0,37.8,42.9Z"/>
        <path d="M38.71,42.45a.28.28,0,0,0,.3.46C39.27,42.79,39.11,42,38.71,42.45Z"/>
        <path d="M40.08,42.45a.28.28,0,0,0,.3.46C40.64,42.79,40.48,42,40.08,42.45Z"/>
        <path d="M41.29,42.45a.28.28,0,0,0,.3.46C41.86,42.79,41.7,42,41.29,42.45Z"/>
        <path d="M42.66,42.45a.28.28,0,0,0,.3.46C43.22,42.79,43.06,42,42.66,42.45Z"/>
        <path d="M43.87,42.45a.28.28,0,0,0,.3.46C44.44,42.79,44.28,42,43.87,42.45Z"/>
        <path d="M1.31,43.67a.28.28,0,0,0,.3.46C1.87,44,1.71,43.26,1.31,43.67Z"/>
        <path d="M2.68,43.67a.28.28,0,0,0,.3.46C3.24,44,3.08,43.26,2.68,43.67Z"/>
        <path d="M3.89,43.67a.28.28,0,0,0,.3.46C4.46,44,4.3,43.26,3.89,43.67Z"/>
        <path d="M5.11,43.67a.28.28,0,0,0,.3.46C5.67,44,5.52,43.26,5.11,43.67Z"/>
        <path d="M6.48,43.67a.28.28,0,0,0,.3.46C7,44,6.88,43.26,6.48,43.67Z"/>
        <path d="M7.69,43.67a.28.28,0,0,0,.3.46C8.26,44,8.1,43.26,7.69,43.67Z"/>
        <path d="M9.06,43.67a.28.28,0,0,0,.3.46C9.63,44,9.47,43.26,9.06,43.67Z"/>
        <path d="M10.28,43.67a.28.28,0,0,0,.3.46C10.84,44,10.69,43.26,10.28,43.67Z"/>
        <path d="M11.65,43.67a.28.28,0,0,0,.3.46C12.21,44,12.05,43.26,11.65,43.67Z"/>
        <path d="M12.86,43.67a.28.28,0,0,0,.3.46C13.43,44,13.27,43.26,12.86,43.67Z"/>
        <path d="M14.23,43.67a.28.28,0,0,0,.3.46C14.8,44,14.64,43.26,14.23,43.67Z"/>
        <path d="M15.45,43.67a.28.28,0,0,0,.3.46C16,44,15.85,43.26,15.45,43.67Z"/>
        <path d="M16.82,43.67a.28.28,0,0,0,.3.46C17.38,44,17.22,43.26,16.82,43.67Z"/>
        <path d="M18,43.67a.28.28,0,0,0,.3.46C18.6,44,18.44,43.26,18,43.67Z"/>
        <path d="M32.33,43.67a.28.28,0,0,0,.3.46C32.89,44,32.73,43.26,32.33,43.67Z"/>
        <path d="M33.54,43.67a.28.28,0,0,0,.3.46C34.11,44,33.95,43.26,33.54,43.67Z"/>
        <path d="M34.91,43.67a.28.28,0,0,0,.3.46C35.47,44,35.32,43.26,34.91,43.67Z"/>
        <path d="M36.13,43.67a.28.28,0,0,0,.3.46C36.69,44,36.53,43.26,36.13,43.67Z"/>
        <path d="M37.8,44.12c.26-.12.1-.86-.3-.46A.28.28,0,0,0,37.8,44.12Z"/>
        <path d="M38.71,43.67a.28.28,0,0,0,.3.46C39.27,44,39.11,43.26,38.71,43.67Z"/>
        <path d="M40.08,43.67a.28.28,0,0,0,.3.46C40.64,44,40.48,43.26,40.08,43.67Z"/>
        <path d="M41.29,43.67a.28.28,0,0,0,.3.46C41.86,44,41.7,43.26,41.29,43.67Z"/>
        <path d="M42.66,43.67a.28.28,0,0,0,.3.46C43.22,44,43.06,43.26,42.66,43.67Z"/>
        <path d="M43.87,43.67a.28.28,0,0,0,.3.46C44.44,44,44.28,43.26,43.87,43.67Z"/>
        <path d="M1.31,45l-.05.07.14.41a.3.3,0,0,0,.22,0C1.87,45.37,1.71,44.63,1.31,45Z"/>
        <path d="M2.68,45a.28.28,0,0,0,.3.46C3.24,45.37,3.08,44.63,2.68,45Z"/>
        <path d="M3.89,45a.28.28,0,0,0,.3.46C4.46,45.37,4.3,44.63,3.89,45Z"/>
        <path d="M5.11,45a.28.28,0,0,0,.3.46C5.67,45.37,5.52,44.63,5.11,45Z"/>
        <path d="M6.48,45a.28.28,0,0,0,.3.46C7,45.37,6.88,44.63,6.48,45Z"/>
        <path d="M7.69,45a.28.28,0,0,0,.3.46C8.26,45.37,8.1,44.63,7.69,45Z"/>
        <path d="M9.06,45a.28.28,0,0,0,.3.46C9.63,45.37,9.47,44.63,9.06,45Z"/>
        <path d="M10.28,45a.28.28,0,0,0,.3.46C10.84,45.37,10.69,44.63,10.28,45Z"/>
        <path d="M11.65,45a.28.28,0,0,0,.3.46C12.21,45.37,12.05,44.63,11.65,45Z"/>
        <path d="M12.86,45a.28.28,0,0,0,.3.46C13.43,45.37,13.27,44.63,12.86,45Z"/>
        <path d="M14.23,45a.28.28,0,0,0,.3.46C14.8,45.37,14.64,44.63,14.23,45Z"/>
        <path d="M15.45,45a.28.28,0,0,0,.3.46C16,45.37,15.85,44.63,15.45,45Z"/>
        <path d="M16.82,45a.28.28,0,0,0,.3.46C17.38,45.37,17.22,44.63,16.82,45Z"/>
        <path d="M18,45a.28.28,0,0,0,.3.46C18.6,45.37,18.44,44.63,18,45Z"/>
        <path d="M19.4,45a.28.28,0,0,0,.3.46C20,45.37,19.81,44.63,19.4,45Z"/>
        <path d="M33.54,45a.28.28,0,0,0,.3.46C34.11,45.37,33.95,44.63,33.54,45Z"/>
        <path d="M34.91,45a.28.28,0,0,0,.3.46C35.47,45.37,35.32,44.63,34.91,45Z"/>
        <path d="M36.13,45a.28.28,0,0,0,.3.46C36.69,45.37,36.53,44.63,36.13,45Z"/>
        <path d="M37.8,45.49c.26-.11.1-.86-.3-.46A.28.28,0,0,0,37.8,45.49Z"/>
        <path d="M38.71,45a.28.28,0,0,0,.3.46C39.27,45.37,39.11,44.63,38.71,45Z"/>
        <path d="M40.08,45a.28.28,0,0,0,.3.46C40.64,45.37,40.48,44.63,40.08,45Z"/>
        <path d="M41.29,45a.28.28,0,0,0,.3.46C41.86,45.37,41.7,44.63,41.29,45Z"/>
        <path d="M42.66,45a.28.28,0,0,0,.3.46C43.22,45.37,43.06,44.63,42.66,45Z"/>
        <path d="M43.87,45a.28.28,0,0,0,.3.46C44.44,45.37,44.28,44.63,43.87,45Z"/>
        <path d="M1.73,46.48a.35.35,0,0,0-.12-.31Z"/>
        <path d="M2.68,46.25a.28.28,0,0,0,.3.45C3.24,46.59,3.08,45.84,2.68,46.25Z"/>
        <path d="M3.89,46.25a.28.28,0,0,0,.3.45C4.46,46.59,4.3,45.84,3.89,46.25Z"/>
        <path d="M5.11,46.25a.28.28,0,0,0,.3.45C5.67,46.59,5.52,45.84,5.11,46.25Z"/>
        <path d="M6.48,46.25a.28.28,0,0,0,.3.45C7,46.59,6.88,45.84,6.48,46.25Z"/>
        <path d="M7.69,46.25a.28.28,0,0,0,.3.45C8.26,46.59,8.1,45.84,7.69,46.25Z"/>
        <path d="M9.06,46.25a.28.28,0,0,0,.3.45C9.63,46.59,9.47,45.84,9.06,46.25Z"/>
        <path d="M10.28,46.25a.28.28,0,0,0,.3.45C10.84,46.59,10.69,45.84,10.28,46.25Z"/>
        <path d="M11.65,46.25a.28.28,0,0,0,.3.45C12.21,46.59,12.05,45.84,11.65,46.25Z"/>
        <path d="M12.86,46.25a.28.28,0,0,0,.3.45C13.43,46.59,13.27,45.84,12.86,46.25Z"/>
        <path d="M14.23,46.25a.28.28,0,0,0,.3.45C14.8,46.59,14.64,45.84,14.23,46.25Z"/>
        <path d="M15.45,46.25a.28.28,0,0,0,.3.45C16,46.59,15.85,45.84,15.45,46.25Z"/>
        <path d="M16.82,46.25a.28.28,0,0,0,.3.45C17.38,46.59,17.22,45.84,16.82,46.25Z"/>
        <path d="M18,46.25a.28.28,0,0,0,.3.45C18.6,46.59,18.44,45.84,18,46.25Z"/>
        <path d="M19.4,46.25a.28.28,0,0,0,.3.45C20,46.59,19.81,45.84,19.4,46.25Z"/>
        <path d="M34.91,46.25a.28.28,0,0,0,.3.45C35.47,46.59,35.32,45.84,34.91,46.25Z"/>
        <path d="M36.13,47.62a.28.28,0,0,0,.3.46C36.69,48,36.53,47.21,36.13,47.62Z"/>
        <path d="M37.49,47.62a.28.28,0,0,0,.3.46C38.06,48,37.9,47.21,37.49,47.62Z"/>
        <path d="M36.13,46.25a.27.27,0,0,0,.3.45C36.69,46.59,36.53,45.84,36.13,46.25Z"/>
        <path d="M37.8,46.71c.26-.11.1-.86-.3-.45A.28.28,0,0,0,37.8,46.71Z"/>
        <path d="M38.71,46.25a.28.28,0,0,0,.3.45C39.27,46.59,39.11,45.84,38.71,46.25Z"/>
        <path d="M40.08,46.25a.28.28,0,0,0,.3.45C40.64,46.59,40.48,45.84,40.08,46.25Z"/>
        <path d="M41.29,46.25a.28.28,0,0,0,.3.45C41.86,46.59,41.7,45.84,41.29,46.25Z"/>
        <path d="M42.66,46.25a.28.28,0,0,0,.3.45C43.22,46.59,43.06,45.84,42.66,46.25Z"/>
        <path d="M43.87,46.25a.28.28,0,0,0,.3.45C44.44,46.59,44.28,45.84,43.87,46.25Z"/>
        <path d="M2.68,47.62a.28.28,0,0,0,.3.46C3.24,48,3.08,47.21,2.68,47.62Z"/>
        <path d="M3.89,47.62a.28.28,0,0,0,.3.46C4.46,48,4.3,47.21,3.89,47.62Z"/>
        <path d="M5.11,47.62a.28.28,0,0,0,.3.46C5.67,48,5.52,47.21,5.11,47.62Z"/>
        <path d="M6.48,47.62a.28.28,0,0,0,.3.46C7,48,6.88,47.21,6.48,47.62Z"/>
        <path d="M7.69,47.62a.28.28,0,0,0,.3.46C8.26,48,8.1,47.21,7.69,47.62Z"/>
        <path d="M9.06,47.62a.28.28,0,0,0,.3.46C9.63,48,9.47,47.21,9.06,47.62Z"/>
        <path d="M10.28,47.62a.28.28,0,0,0,.3.46C10.84,48,10.69,47.21,10.28,47.62Z"/>
        <path d="M11.65,47.62a.28.28,0,0,0,.3.46C12.21,48,12.05,47.21,11.65,47.62Z"/>
        <path d="M12.86,47.62a.28.28,0,0,0,.3.46C13.43,48,13.27,47.21,12.86,47.62Z"/>
        <path d="M14.23,47.62a.28.28,0,0,0,.3.46C14.8,48,14.64,47.21,14.23,47.62Z"/>
        <path d="M15.45,47.62a.28.28,0,0,0,.3.46C16,48,15.85,47.21,15.45,47.62Z"/>
        <path d="M16.82,47.62a.28.28,0,0,0,.3.46C17.38,48,17.22,47.21,16.82,47.62Z"/>
        <path d="M18,47.62a.28.28,0,0,0,.3.46C18.6,48,18.44,47.21,18,47.62Z"/>
        <path d="M19.4,47.62a.28.28,0,0,0,.3.46C20,48,19.81,47.21,19.4,47.62Z"/>
        <path d="M20.62,47.62a.28.28,0,0,0,.3.46C21.18,48,21,47.21,20.62,47.62Z"/>
        <path d="M22,47.62a.28.28,0,0,0,.3.46C22.55,48,22.39,47.21,22,47.62Z"/>
        <path d="M23.2,47.62a.28.28,0,0,0,.3.46C23.77,48,23.61,47.21,23.2,47.62Z"/>
        <path d="M24.57,47.62a.28.28,0,0,0,.3.46C25.14,48,25,47.21,24.57,47.62Z"/>
        <path d="M38.71,47.62a.28.28,0,0,0,.3.46C39.27,48,39.11,47.21,38.71,47.62Z"/>
        <path d="M40.08,47.62a.28.28,0,0,0,.3.46C40.64,48,40.48,47.21,40.08,47.62Z"/>
        <path d="M41.29,47.62a.28.28,0,0,0,.3.46C41.86,48,41.7,47.21,41.29,47.62Z"/>
        <path d="M42.66,47.62a.28.28,0,0,0,.3.46C43.22,48,43.06,47.21,42.66,47.62Z"/>
        <path d="M2.71,48.81l.22.49H3C3.23,49.18,3.09,48.48,2.71,48.81Z"/>
        <path d="M3.89,48.83a.28.28,0,0,0,.3.46C4.46,49.18,4.3,48.43,3.89,48.83Z"/>
        <path d="M5.11,48.83a.28.28,0,0,0,.3.46C5.67,49.18,5.52,48.43,5.11,48.83Z"/>
        <path d="M6.48,48.83a.28.28,0,0,0,.3.46C7,49.18,6.88,48.43,6.48,48.83Z"/>
        <path d="M7.69,48.83a.28.28,0,0,0,.3.46C8.26,49.18,8.1,48.43,7.69,48.83Z"/>
        <path d="M9.06,48.83a.28.28,0,0,0,.3.46C9.63,49.18,9.47,48.43,9.06,48.83Z"/>
        <path d="M10.28,48.83a.28.28,0,0,0,.3.46C10.84,49.18,10.69,48.43,10.28,48.83Z"/>
        <path d="M11.65,48.83a.28.28,0,0,0,.3.46C12.21,49.18,12.05,48.43,11.65,48.83Z"/>
        <path d="M12.86,48.83a.28.28,0,0,0,.3.46C13.43,49.18,13.27,48.43,12.86,48.83Z"/>
        <path d="M14.23,48.83a.28.28,0,0,0,.3.46C14.8,49.18,14.64,48.43,14.23,48.83Z"/>
        <path d="M15.45,48.83a.28.28,0,0,0,.3.46C16,49.18,15.85,48.43,15.45,48.83Z"/>
        <path d="M16.82,48.83a.28.28,0,0,0,.3.46C17.38,49.18,17.22,48.43,16.82,48.83Z"/>
        <path d="M18,48.83a.28.28,0,0,0,.3.46C18.6,49.18,18.44,48.43,18,48.83Z"/>
        <path d="M19.4,48.83a.28.28,0,0,0,.3.46C20,49.18,19.81,48.43,19.4,48.83Z"/>
        <path d="M20.62,48.83a.28.28,0,0,0,.3.46C21.18,49.18,21,48.43,20.62,48.83Z"/>
        <path d="M22,48.83a.28.28,0,0,0,.3.46C22.55,49.18,22.39,48.43,22,48.83Z"/>
        <path d="M23.2,48.83a.28.28,0,0,0,.3.46C23.77,49.18,23.61,48.43,23.2,48.83Z"/>
        <path d="M24.57,48.83a.28.28,0,0,0,.3.46C25.14,49.18,25,48.43,24.57,48.83Z"/>
        <path d="M3.89,50.2a.28.28,0,0,0,.3.46C4.46,50.54,4.3,49.8,3.89,50.2Z"/>
        <path d="M5.11,50.2a.28.28,0,0,0,.3.46C5.67,50.54,5.52,49.8,5.11,50.2Z"/>
        <path d="M6.48,50.2a.28.28,0,0,0,.3.46C7,50.54,6.88,49.8,6.48,50.2Z"/>
        <path d="M7.69,50.2a.28.28,0,0,0,.3.46C8.26,50.54,8.1,49.8,7.69,50.2Z"/>
        <path d="M9.06,50.2a.28.28,0,0,0,.3.46C9.63,50.54,9.47,49.8,9.06,50.2Z"/>
        <path d="M10.28,50.2a.28.28,0,0,0,.3.46C10.84,50.54,10.69,49.8,10.28,50.2Z"/>
        <path d="M11.65,50.2a.28.28,0,0,0,.3.46C12.21,50.54,12.05,49.8,11.65,50.2Z"/>
        <path d="M12.86,50.2a.28.28,0,0,0,.3.46C13.43,50.54,13.27,49.8,12.86,50.2Z"/>
        <path d="M14.23,50.2a.28.28,0,0,0,.3.46C14.8,50.54,14.64,49.8,14.23,50.2Z"/>
        <path d="M15.45,50.2a.28.28,0,0,0,.3.46C16,50.54,15.85,49.8,15.45,50.2Z"/>
        <path d="M23.2,50.2a.28.28,0,0,0,.3.46C23.77,50.54,23.61,49.8,23.2,50.2Z"/>
        <path d="M24.57,50.2a.28.28,0,0,0,.3.46C25.14,50.54,25,49.8,24.57,50.2Z"/>
        <path d="M4,51.34l.27.47C4.4,51.62,4.28,51.19,4,51.34Z"/>
        <path d="M5.11,51.42a.28.28,0,0,0,.3.46C5.67,51.76,5.52,51,5.11,51.42Z"/>
        <path d="M6.48,51.42a.28.28,0,0,0,.3.46C7,51.76,6.88,51,6.48,51.42Z"/>
        <path d="M7.69,51.42a.28.28,0,0,0,.3.46C8.26,51.76,8.1,51,7.69,51.42Z"/>
        <path d="M9.06,51.42a.28.28,0,0,0,.3.46C9.63,51.76,9.47,51,9.06,51.42Z"/>
        <path d="M10.28,51.42a.28.28,0,0,0,.3.46C10.84,51.76,10.69,51,10.28,51.42Z"/>
        <path d="M11.65,51.42a.28.28,0,0,0,.3.46C12.21,51.76,12.05,51,11.65,51.42Z"/>
        <path d="M12.86,51.42a.28.28,0,0,0,.3.46C13.43,51.76,13.27,51,12.86,51.42Z"/>
        <path d="M14.23,51.42a.28.28,0,0,0,.3.46C14.8,51.76,14.64,51,14.23,51.42Z"/>
        <path d="M5.11,52.79A.3.3,0,0,0,5,53a.26.26,0,0,0,.14.22.28.28,0,0,0,.25,0C5.67,53.13,5.52,52.38,5.11,52.79Z"/>
        <path d="M6.48,52.79a.28.28,0,0,0,.3.46C7,53.13,6.88,52.38,6.48,52.79Z"/>
        <path d="M7.69,52.79a.28.28,0,0,0,.3.46C8.26,53.13,8.1,52.38,7.69,52.79Z"/>
        <path d="M9.06,52.79a.28.28,0,0,0,.3.46C9.63,53.13,9.47,52.38,9.06,52.79Z"/>
        <path d="M10.28,52.79a.28.28,0,0,0,.3.46C10.84,53.13,10.69,52.38,10.28,52.79Z"/>
        <path d="M11.65,52.79a.28.28,0,0,0,.3.46C12.21,53.13,12.05,52.38,11.65,52.79Z"/>
        <path d="M12.86,52.79a.28.28,0,0,0,.3.46C13.43,53.13,13.27,52.38,12.86,52.79Z"/>
        <path d="M6.48,54a.28.28,0,0,0,.3.46C7,54.35,6.88,53.6,6.48,54Z"/>
        <path d="M7.69,54a.28.28,0,0,0,.3.46C8.26,54.35,8.1,53.6,7.69,54Z"/>
        <path d="M9.06,54a.28.28,0,0,0,.3.46C9.63,54.35,9.47,53.6,9.06,54Z"/>
        <path d="M10.28,54a.28.28,0,0,0,.3.46C10.84,54.35,10.69,53.6,10.28,54Z"/>
        <path d="M11.65,54a.28.28,0,0,0,.3.46C12.21,54.35,12.05,53.6,11.65,54Z"/>
        <path d="M12.86,54a.28.28,0,0,0,.3.46C13.43,54.35,13.27,53.6,12.86,54Z"/>
        <path d="M6.6,55.28l.3.38C6.94,55.46,6.83,55.17,6.6,55.28Z"/>
        <path d="M7.69,55.37a.28.28,0,0,0,.3.46C8.26,55.71,8.1,55,7.69,55.37Z"/>
        <path d="M9.06,55.37a.28.28,0,0,0,.3.46C9.63,55.71,9.47,55,9.06,55.37Z"/>
        <path d="M10.28,55.37a.28.28,0,0,0,.3.46C10.84,55.71,10.69,55,10.28,55.37Z"/>
        <path d="M11.65,55.37a.28.28,0,0,0,.3.46C12.21,55.71,12.05,55,11.65,55.37Z"/>
        <path d="M12.86,55.37a.28.28,0,0,0,.3.46C13.43,55.71,13.27,55,12.86,55.37Z"/>
        <path d="M7.69,56.59l0,0L8,57C8.24,56.87,8.08,56.2,7.69,56.59Z"/>
        <path d="M9.06,56.59a.28.28,0,0,0,.3.46C9.63,56.93,9.47,56.18,9.06,56.59Z"/>
        <path d="M10.28,56.59a.28.28,0,0,0,.3.46C10.84,56.93,10.69,56.18,10.28,56.59Z"/>
        <path d="M11.65,56.59A.28.28,0,0,0,12,57C12.21,56.93,12.05,56.18,11.65,56.59Z"/>
        <path d="M12.86,56.59a.28.28,0,0,0,.3.46C13.43,56.93,13.27,56.18,12.86,56.59Z"/>
        <path d="M14.23,56.59a.28.28,0,0,0,.3.46C14.8,56.93,14.64,56.18,14.23,56.59Z"/>
        <path d="M9.06,58a.31.31,0,0,0-.07.13l.38.33C9.63,58.3,9.47,57.55,9.06,58Z"/>
        <path d="M10.28,58a.28.28,0,0,0,.3.46C10.84,58.3,10.69,57.55,10.28,58Z"/>
        <path d="M11.65,58a.28.28,0,0,0,.3.46C12.21,58.3,12.05,57.55,11.65,58Z"/>
        <path d="M12.86,58a.28.28,0,0,0,.3.46C13.43,58.3,13.27,57.55,12.86,58Z"/>
        <path d="M14.23,58a.28.28,0,0,0,.3.46C14.8,58.3,14.64,57.55,14.23,58Z"/>
        <path d="M15.45,58a.28.28,0,0,0,.3.46C16,58.3,15.85,57.55,15.45,58Z"/>
        <path d="M16.82,58a.28.28,0,0,0,.3.46C17.38,58.3,17.22,57.55,16.82,58Z"/>
        <path d="M18,58a.28.28,0,0,0,.3.46C18.6,58.3,18.44,57.55,18,58Z"/>
        <path d="M10.28,59.17a.31.31,0,0,0-.08.13l.35.33h0C10.84,59.51,10.69,58.77,10.28,59.17Z"/>
        <path d="M11.65,59.17a.28.28,0,0,0,.3.46C12.21,59.51,12.05,58.77,11.65,59.17Z"/>
        <path d="M12.86,59.17a.28.28,0,0,0,.3.46C13.43,59.51,13.27,58.77,12.86,59.17Z"/>
        <path d="M14.23,59.17a.28.28,0,0,0,.3.46C14.8,59.51,14.64,58.77,14.23,59.17Z"/>
        <path d="M15.45,59.17a.28.28,0,0,0,.3.46C16,59.51,15.85,58.77,15.45,59.17Z"/>
        <path d="M16.82,59.17a.28.28,0,0,0,.3.46C17.38,59.51,17.22,58.77,16.82,59.17Z"/>
        <path d="M18,59.17a.28.28,0,0,0,.3.46C18.6,59.51,18.44,58.77,18,59.17Z"/>
        <path d="M19.4,59.17a.28.28,0,0,0,.3.46C20,59.51,19.81,58.77,19.4,59.17Z"/>
        <path d="M20.62,59.17a.28.28,0,0,0,.3.46C21.18,59.51,21,58.77,20.62,59.17Z"/>
        <path d="M22.29,59.63c.26-.12.1-.86-.3-.46A.28.28,0,0,0,22.29,59.63Z"/>
        <path d="M23.51,59.63c.26-.12.1-.86-.3-.46A.28.28,0,0,0,23.51,59.63Z"/>
        <path d="M11.65,60.54l0,0,.41.35C12.17,60.73,12,60.18,11.65,60.54Z"/>
        <path d="M12.86,60.54a.28.28,0,0,0,.3.46C13.43,60.88,13.27,60.14,12.86,60.54Z"/>
        <path d="M14.23,60.54a.28.28,0,0,0,.3.46C14.8,60.88,14.64,60.14,14.23,60.54Z"/>
        <path d="M15.45,60.54a.28.28,0,0,0,.3.46C16,60.88,15.85,60.14,15.45,60.54Z"/>
        <path d="M16.82,60.54a.28.28,0,0,0,.3.46C17.38,60.88,17.22,60.14,16.82,60.54Z"/>
        <path d="M18,60.54a.28.28,0,0,0,.3.46C18.6,60.88,18.44,60.14,18,60.54Z"/>
        <path d="M19.4,60.54a.28.28,0,0,0,.3.46C20,60.88,19.81,60.14,19.4,60.54Z"/>
        <path d="M20.62,60.54a.28.28,0,0,0,.3.46C21.18,60.88,21,60.14,20.62,60.54Z"/>
        <path d="M13,61.68l.32.25C13.29,61.75,13.17,61.57,13,61.68Z"/>
        <path d="M14.23,61.76a.28.28,0,0,0,.3.46C14.8,62.1,14.64,61.35,14.23,61.76Z"/>
        <path d="M15.45,61.76a.28.28,0,0,0,.3.46C16,62.1,15.85,61.35,15.45,61.76Z"/>
        <path d="M16.82,61.76a.28.28,0,0,0,.3.46C17.38,62.1,17.22,61.35,16.82,61.76Z"/>
        <path d="M18,61.76a.28.28,0,0,0,.3.46C18.6,62.1,18.44,61.35,18,61.76Z"/>
        <path d="M19.4,61.76a.28.28,0,0,0,.3.46C20,62.1,19.81,61.35,19.4,61.76Z"/>
        <path d="M20.62,61.76a.28.28,0,0,0,.3.46C21.18,62.1,21,61.35,20.62,61.76Z"/>
        <path d="M15.45,63.13a.3.3,0,0,0-.09.25l.35.22h0C16,63.47,15.85,62.72,15.45,63.13Z"/>
        <path d="M16.82,63.13a.28.28,0,0,0,.3.46C17.38,63.47,17.22,62.72,16.82,63.13Z"/>
        <path d="M18,63.13a.28.28,0,0,0,.3.46C18.6,63.47,18.44,62.72,18,63.13Z"/>
        <path d="M19.4,63.13a.28.28,0,0,0,.3.46C20,63.47,19.81,62.72,19.4,63.13Z"/>
        <path d="M20.62,63.13a.28.28,0,0,0,.3.46C21.18,63.47,21,62.72,20.62,63.13Z"/>
        <path d="M16.88,64.3l.37.21C17.23,64.31,17.1,64.13,16.88,64.3Z"/>
        <path d="M18,64.34a.28.28,0,0,0,.3.46C18.6,64.68,18.44,63.94,18,64.34Z"/>
        <path d="M19.4,64.34a.28.28,0,0,0,.3.46C20,64.68,19.81,63.94,19.4,64.34Z"/>
        <path d="M20.62,64.34a.28.28,0,0,0,.3.46C21.18,64.68,21,63.94,20.62,64.34Z"/>
        <path d="M22,64.34a.28.28,0,0,0,.3.46C22.55,64.68,22.39,63.94,22,64.34Z"/>
        <path d="M19.49,65.65l.33.15C19.78,65.64,19.66,65.53,19.49,65.65Z"/>
        <path d="M20.62,65.71a.28.28,0,0,0,.3.46C21.18,66.05,21,65.31,20.62,65.71Z"/>
        <path d="M22,65.71a.28.28,0,0,0,.3.46C22.55,66.05,22.39,65.31,22,65.71Z"/>
      </g>
    </g>
  </g>
</svg>
